HIERARCHY
ROOT Root
{
  OFFSET 0.0 0.0 0.0
  CHANNELS 6 Xposition Yposition Zposition Zrotation Yrotation Xrotation
  JOINT Hips
  {
    OFFSET 0.0 100.0 0.0
    CHANNELS 6 Xposition Yposition Zposition Zrotation Yrotation Xrotation
    JOINT Spine1
    {
      OFFSET -0.013727 5.003763 -0.053727
      CHANNELS 3 Zrotation Yrotation Xrotation
      JOINT Spine2
      {
        OFFSET -0.0 7.125301 -0.029825
        CHANNELS 3 Zrotation Yrotation Xrotation
        JOINT Chest
        {
          OFFSET -1e-06 7.550063 -0.815971
          CHANNELS 3 Zrotation Yrotation Xrotation
          JOINT Neck1
          {
            OFFSET -0.181677 26.311295 -0.553348
            CHANNELS 3 Zrotation Yrotation Xrotation
            JOINT Neck2
            {
              OFFSET -3e-06 7.709397 2.302585
              CHANNELS 3 Zrotation Yrotation Xrotation
              JOINT Head
              {
                OFFSET -5e-06 6.128916 1.953709
                CHANNELS 3 Zrotation Yrotation Xrotation
                JOINT HeadEnd
                {
                  OFFSET 0.003598 16.065403 -1.835379
                  CHANNELS 3 Zrotation Yrotation Xrotation
                }
                JOINT Jaw
                {
                  OFFSET 0.002637 0.475592 3.094941
                  CHANNELS 3 Zrotation Yrotation Xrotation
                }
                JOINT LeftEye
                {
                  OFFSET 3.206381 5.380205 7.586883
                  CHANNELS 3 Zrotation Yrotation Xrotation
                }
                JOINT RightEye
                {
                  OFFSET -3.22244 5.361869 7.558234
                  CHANNELS 3 Zrotation Yrotation Xrotation
                }
              }
            }
          }
          JOINT LeftShoulder
          {
            OFFSET 1.621652 23.237164 5.113413
            CHANNELS 3 Zrotation Yrotation Xrotation
            JOINT LeftArm
            {
              OFFSET 14.919846 2e-06 -5.502326
              CHANNELS 3 Zrotation Yrotation Xrotation
              JOINT LeftForeArm
              {
                OFFSET 28.739307 0.0 -0.002588
                CHANNELS 3 Zrotation Yrotation Xrotation
                JOINT LeftHand
                {
                  OFFSET 27.093981 -1e-06 0.002609
                  CHANNELS 3 Zrotation Yrotation Xrotation
                  JOINT LeftHandThumb1
                  {
                    OFFSET 2.276482 -1.392045 3.191413
                    CHANNELS 3 Zrotation Yrotation Xrotation
                    JOINT LeftHandThumb2
                    {
                      OFFSET 4.012836 -1.828127 1.641654
                      CHANNELS 3 Zrotation Yrotation Xrotation
                      JOINT LeftHandThumb3
                      {
                        OFFSET 2.798515 0.0 -3e-06
                        CHANNELS 3 Zrotation Yrotation Xrotation
                        JOINT LeftHandThumbEnd
                        {
                          OFFSET 3.180793 -4e-06 4e-06
                          CHANNELS 3 Zrotation Yrotation Xrotation
                        }
                      }
                    }
                  }
                  JOINT LeftHandIndex1
                  {
                    OFFSET 3.247555 -0.531998 2.296169
                    CHANNELS 3 Zrotation Yrotation Xrotation
                    JOINT LeftHandIndex2
                    {
                      OFFSET 6.364578 0.01206 0.1786
                      CHANNELS 3 Zrotation Yrotation Xrotation
                      JOINT LeftHandIndex3
                      {
                        OFFSET 3.662364 0.0 0.0
                        CHANNELS 3 Zrotation Yrotation Xrotation
                        JOINT LeftHandIndex4
                        {
                          OFFSET 2.329242 4e-06 4e-06
                          CHANNELS 3 Zrotation Yrotation Xrotation
                          JOINT LeftHandIndexEnd
                          {
                            OFFSET 2.759615 -0.180537 -0.113024
                            CHANNELS 3 Zrotation Yrotation Xrotation
                          }
                        }
                      }
                    }
                  }
                  JOINT LeftHandMiddle1
                  {
                    OFFSET 3.163495 0.240981 1.000332
                    CHANNELS 3 Zrotation Yrotation Xrotation
                    JOINT LeftHandMiddle2
                    {
                      OFFSET 6.19078 -0.259278 -1.002548
                      CHANNELS 3 Zrotation Yrotation Xrotation
                      JOINT LeftHandMiddle3
                      {
                        OFFSET 4.35652 -4e-06 -1e-06
                        CHANNELS 3 Zrotation Yrotation Xrotation
                        JOINT LeftHandMiddle4
                        {
                          OFFSET 2.996877 -8e-06 0.0
                          CHANNELS 3 Zrotation Yrotation Xrotation
                          JOINT LeftHandMiddleEnd
                          {
                            OFFSET 2.304287 -0.294569 -0.031741
                            CHANNELS 3 Zrotation Yrotation Xrotation
                          }
                        }
                      }
                    }
                  }
                  JOINT LeftHandRing1
                  {
                    OFFSET 2.882643 -0.053652 -0.322543
                    CHANNELS 3 Zrotation Yrotation Xrotation
                    JOINT LeftHandRing2
                    {
                      OFFSET 5.854541 -0.486202 -1.373841
                      CHANNELS 3 Zrotation Yrotation Xrotation
                      JOINT LeftHandRing3
                      {
                        OFFSET 4.350578 0.0 3e-06
                        CHANNELS 3 Zrotation Yrotation Xrotation
                        JOINT LeftHandRing4
                        {
                          OFFSET 2.651321 7e-06 2e-06
                          CHANNELS 3 Zrotation Yrotation Xrotation
                          JOINT LeftHandRingEnd
                          {
                            OFFSET 1.936105 0.077687 -7.1e-05
                            CHANNELS 3 Zrotation Yrotation Xrotation
                          }
                        }
                      }
                    }
                  }
                  JOINT LeftHandPinky1
                  {
                    OFFSET 2.8655 -0.310005 -1.600378
                    CHANNELS 3 Zrotation Yrotation Xrotation
                    JOINT LeftHandPinky2
                    {
                      OFFSET 5.087849 -1.331141 -1.77123
                      CHANNELS 3 Zrotation Yrotation Xrotation
                      JOINT LeftHandPinky3
                      {
                        OFFSET 3.070974 4e-06 0.0
                        CHANNELS 3 Zrotation Yrotation Xrotation
                        JOINT LeftHandPinky4
                        {
                          OFFSET 1.549672 0.0 1e-06
                          CHANNELS 3 Zrotation Yrotation Xrotation
                          JOINT LeftHandPinkyEnd
                          {
                            OFFSET 1.944893 -0.157802 0.057219
                            CHANNELS 3 Zrotation Yrotation Xrotation
                          }
                        }
                      }
                    }
                  }
                }
              }
            }
          }
          JOINT RightShoulder
          {
            OFFSET -1.380118 23.180309 5.214158
            CHANNELS 3 Zrotation Yrotation Xrotation
            JOINT RightArm
            {
              OFFSET -15.037196 1.2e-05 -5.545604
              CHANNELS 3 Zrotation Yrotation Xrotation
              JOINT RightForeArm
              {
                OFFSET -28.736639 2e-06 -0.002597
                CHANNELS 3 Zrotation Yrotation Xrotation
                JOINT RightHand
                {
                  OFFSET -27.133619 -0.0 0.002613
                  CHANNELS 3 Zrotation Yrotation Xrotation
                  JOINT RightHandThumb1
                  {
                    OFFSET -2.274032 -1.383988 3.163127
                    CHANNELS 3 Zrotation Yrotation Xrotation
                    JOINT RightHandThumb2
                    {
                      OFFSET -4.011429 -1.827466 1.640914
                      CHANNELS 3 Zrotation Yrotation Xrotation
                      JOINT RightHandThumb3
                      {
                        OFFSET -2.794935 -4e-06 -3e-06
                        CHANNELS 3 Zrotation Yrotation Xrotation
                        JOINT RightHandThumbEnd
                        {
                          OFFSET -3.183852 4e-06 1e-06
                          CHANNELS 3 Zrotation Yrotation Xrotation
                        }
                      }
                    }
                  }
                  JOINT RightHandIndex1
                  {
                    OFFSET -3.253266 -0.520057 2.282866
                    CHANNELS 3 Zrotation Yrotation Xrotation
                    JOINT RightHandIndex2
                    {
                      OFFSET -6.341917 0.012471 0.178266
                      CHANNELS 3 Zrotation Yrotation Xrotation
                      JOINT RightHandIndex3
                      {
                        OFFSET -3.654871 -8e-06 -0.0
                        CHANNELS 3 Zrotation Yrotation Xrotation
                        JOINT RightHandIndex4
                        {
                          OFFSET -2.327586 0.0 1e-06
                          CHANNELS 3 Zrotation Yrotation Xrotation
                          JOINT RightHandIndexEnd
                          {
                            OFFSET -2.76179 -0.180656 -0.113078
                            CHANNELS 3 Zrotation Yrotation Xrotation
                          }
                        }
                      }
                    }
                  }
                  JOINT RightHandMiddle1
                  {
                    OFFSET -3.168106 0.246593 1.00103
                    CHANNELS 3 Zrotation Yrotation Xrotation
                    JOINT RightHandMiddle2
                    {
                      OFFSET -6.180828 -0.258836 -1.000895
                      CHANNELS 3 Zrotation Yrotation Xrotation
                      JOINT RightHandMiddle3
                      {
                        OFFSET -4.348901 0.0 -0.0
                        CHANNELS 3 Zrotation Yrotation Xrotation
                        JOINT RightHandMiddle4
                        {
                          OFFSET -3.00024 -4e-06 -2e-06
                          CHANNELS 3 Zrotation Yrotation Xrotation
                          JOINT RightHandMiddleEnd
                          {
                            OFFSET -2.30252 -0.29437 -0.031706
                            CHANNELS 3 Zrotation Yrotation Xrotation
                          }
                        }
                      }
                    }
                  }
                  JOINT RightHandRing1
                  {
                    OFFSET -2.88569 -0.067952 -0.308858
                    CHANNELS 3 Zrotation Yrotation Xrotation
                    JOINT RightHandRing2
                    {
                      OFFSET -5.854198 -0.48613 -1.373731
                      CHANNELS 3 Zrotation Yrotation Xrotation
                      JOINT RightHandRing3
                      {
                        OFFSET -4.33881 -4e-06 -0.0
                        CHANNELS 3 Zrotation Yrotation Xrotation
                        JOINT RightHandRing4
                        {
                          OFFSET -2.654903 -4e-06 4e-06
                          CHANNELS 3 Zrotation Yrotation Xrotation
                          JOINT RightHandRingEnd
                          {
                            OFFSET -1.933568 0.077527 -5.2e-05
                            CHANNELS 3 Zrotation Yrotation Xrotation
                          }
                        }
                      }
                    }
                  }
                  JOINT RightHandPinky1
                  {
                    OFFSET -2.866425 -0.342796 -1.584145
                    CHANNELS 3 Zrotation Yrotation Xrotation
                    JOINT RightHandPinky2
                    {
                      OFFSET -5.091371 -1.332055 -1.772385
                      CHANNELS 3 Zrotation Yrotation Xrotation
                      JOINT RightHandPinky3
                      {
                        OFFSET -3.062664 -4e-06 1e-06
                        CHANNELS 3 Zrotation Yrotation Xrotation
                        JOINT RightHandPinky4
                        {
                          OFFSET -1.546529 4e-06 -2e-06
                          CHANNELS 3 Zrotation Yrotation Xrotation
                          JOINT RightHandPinkyEnd
                          {
                            OFFSET -1.945119 -0.157718 0.057211
                            CHANNELS 3 Zrotation Yrotation Xrotation
                          }
                        }
                      }
                    }
                  }
                }
              }
            }
          }
        }
      }
    }
    JOINT LeftLeg
    {
      OFFSET 10.043214 -8.434526 2.595655
      CHANNELS 3 Zrotation Yrotation Xrotation
      JOINT LeftShin
      {
        OFFSET -1e-06 -43.221752 -0.802913
        CHANNELS 3 Zrotation Yrotation Xrotation
        JOINT LeftFoot
        {
          OFFSET 1e-06 -42.155094 -3.481523
          CHANNELS 3 Zrotation Yrotation Xrotation
          JOINT LeftToeBase
          {
            OFFSET 0.0 -5.059472 13.231529
            CHANNELS 3 Zrotation Yrotation Xrotation
            JOINT LeftToeEnd
            {
              OFFSET -0.009607 -1.647619 6.513017
              CHANNELS 3 Zrotation Yrotation Xrotation
            }
          }
        }
      }
    }
    JOINT RightLeg
    {
      OFFSET -10.047278 -8.29526 2.620317
      CHANNELS 3 Zrotation Yrotation Xrotation
      JOINT RightShin
      {
        OFFSET 1e-06 -43.362206 -0.805556
        CHANNELS 3 Zrotation Yrotation Xrotation
        JOINT RightFoot
        {
          OFFSET 2e-06 -42.117393 -3.478398
          CHANNELS 3 Zrotation Yrotation Xrotation
          JOINT RightToeBase
          {
            OFFSET -0.0 -5.079609 13.284196
            CHANNELS 3 Zrotation Yrotation Xrotation
            JOINT RightToeEnd
            {
              OFFSET 0.009532 -1.634378 6.460591
              CHANNELS 3 Zrotation Yrotation Xrotation
            }
          }
        }
      }
    }
  }
}
MOTION
Frames: 5
Frame Time: 0.03333333333333333
0.0 0.0 0.0 0.0 -0.0 0.0 6.137867 91.600639 124.078857 0.11192 4.485854 -7.670536 -0.490229 1.560021 -1.073384 -0.712642 4.434924 -5.584644 -5.355248 3.219321 13.629689 1.187128 1.840794 2.129349 -0.950594 -1.415977 -3.656417 5.134798 -7.099985 -8.868855 7.7e-05 -2.3e-05 6e-06 0.029778 0.121079 0.02936 0.699211 -3.559246 -10.376196 -0.65252 3.790654 -10.369769 -8.790668 -3.559594 13.458305 -40.307774 -50.752087 5.192755 -170.069595 -80.93924 169.277985 -12.118193 3.719187 18.353254 -5.882108 9.861286 0.702589 -10.936873 -0.360573 7.156205 0.0 8.774825 -1e-06 -15.990387 17.489071 5.25019 -1.844033 2.498506 -2.507278 -10.163603 4.678945 4.621109 -20.976027 -3e-06 3e-06 -21.226292 2.451696 -3.594001 0.0 -5e-06 -1e-06 -1.362682 2.240798 -0.746324 -21.334915 0.584911 3.008324 -13.821214 -1e-06 2e-06 -23.887171 -0.249077 -0.839484 -59.41785 2.355894 -1.271349 -0.294025 1.679687 0.833256 -14.218212 0.093213 1.30058 -34.212051 -0.28756 0.96717 -20.033216 0.964537 1.212843 1e-06 0.0 0.0 -3.440389 0.788235 0.501656 -15.928187 -3.167308 2.999708 -6.338828 -2e-06 1e-06 -18.123447 3.648183 -4.905674 -4e-06 -1e-06 -1e-06 -2.673821 21.788311 13.939717 19.92001 32.165359 -0.141276 -10.691924 76.017502 -11.394814 9.073994 -21.24901 21.850061 2.243541 -5.255039 -3.18016 14.282898 -0.826592 6.952507 -5e-06 -12.690609 2e-06 15.930153 -16.755474 2.38086 1.665666 -1.955923 -2.8783 4.727803 -4.170588 4.993928 11.020534 6e-06 1e-06 12.109058 -3.735714 -2.866784 3e-06 1e-06 -1e-06 1.291986 -1.92855 -1.49809 14.800139 0.56747 3.865609 14.242582 -1.341733 -6.66066 19.631981 0.143929 -0.648245 49.028927 -0.62485 -6.382004 0.35303 -1.511152 -0.03194 20.222803 3.684313 2.316631 18.787283 7e-06 1e-06 10.751633 -0.479867 1.397907 0.0 -0.0 -1e-06 3.27381 0.305948 -0.58011 21.486828 11.830383 2.266132 8.162931 3e-06 1e-06 18.399092 -3.798983 -4.940575 3e-06 -0.0 -0.0 4.527881 8.199118 -24.997509 -0.072338 -0.058957 72.185631 -6.108849 -7.609587 -16.676157 1.662331 -1.667933 -4.059206 0.0 0.0 3e-06 -9.943014 -11.516686 6.266495 -0.034693 0.575577 39.949421 9.957315 6.717357 -25.546755 -1.406704 0.813685 -2.942385 0.0 0.0 -1e-06 
0.0 0.0 0.0 0.0 -0.0 0.0 6.2909 91.241226 126.524338 1.372718 6.157244 -6.530379 -1.132151 1.938076 -1.381964 -0.798966 5.263344 -5.573849 -7.144512 4.435367 13.546616 2.464149 1.370425 0.685267 -1.173431 -2.496641 -3.765209 6.521963 -9.2722 -8.7432 7.7e-05 -2.3e-05 6e-06 0.038807 0.1453 0.015931 0.695498 -3.536597 -10.371168 -0.632274 3.816506 -10.351722 -10.958526 -1.472941 12.929416 -39.2453 -47.376862 4.813516 -179.334152 -66.689445 177.86528 -15.352628 2.799898 15.101164 -5.882109 9.861289 0.702592 -10.936877 -0.360578 7.156209 1e-06 8.77483 -0.0 -16.362919 17.340374 4.902539 -1.844033 2.498503 -2.507279 -10.163604 4.678946 4.621111 -20.976034 -2e-06 2e-06 -21.226297 2.451696 -3.594002 -0.0 -7e-06 -1e-06 -1.362682 2.240798 -0.746323 -21.334925 0.584909 3.008324 -13.82122 -3e-06 2e-06 -23.887182 -0.249079 -0.839484 -59.793835 2.280478 -1.39089 -0.294024 1.679687 0.833256 -14.218215 0.093216 1.300581 -34.212067 -0.287565 0.967172 -20.03322 0.964537 1.212846 1e-06 1e-06 0.0 -3.440389 0.788232 0.501656 -15.928198 -3.167312 2.999709 -6.33883 -1e-06 1e-06 -18.123457 3.648183 -4.90567 -5e-06 0.0 -3e-06 -4.593363 22.537785 13.83005 18.386379 26.527264 1.332928 -20.251627 79.672897 -20.727291 10.207365 -17.902086 21.79521 2.243541 -5.255038 -3.180159 14.282896 -0.826596 6.952507 -2e-06 -12.690607 3e-06 16.0065 -16.896078 2.268248 1.665667 -1.955922 -2.878299 4.727803 -4.170588 4.993928 11.020534 3e-06 0.0 12.109057 -3.735716 -2.866783 1e-06 1e-06 -2e-06 1.291986 -1.928549 -1.498088 14.800138 0.56747 3.865609 14.242577 -1.341735 -6.66066 19.631973 0.143925 -0.648243 48.697887 -0.878806 -6.603535 0.353029 -1.511152 -0.031938 20.222801 3.68431 2.316634 18.787283 6e-06 2e-06 10.751633 -0.47987 1.397908 0.0 1e-06 -2e-06 3.273809 0.305947 -0.58011 21.486824 11.830379 2.266131 8.162932 2e-06 0.0 18.399092 -3.798987 -4.940576 3e-06 -0.0 -0.0 3.090161 7.857074 -28.082403 0.03298 -0.050022 67.175758 -4.360931 -3.343149 -19.919064 1.697961 -1.669358 -3.505024 -0.0 -1e-06 2e-06 -11.119682 -11.689702 7.606134 0.003338 0.692019 39.488533 10.038235 6.077364 -26.176807 -1.421915 0.910573 -3.700588 0.0 -0.0 -1e-06 
0.0 0.0 0.0 0.0 -0.0 0.0 6.643079 90.414833 129.388397 2.235487 7.890552 -5.532075 -1.432601 2.190117 -1.793203 -0.936154 5.729251 -5.573094 -8.730847 5.465754 13.474527 3.762253 0.760684 -0.496127 -1.389672 -3.295889 -3.563393 7.934946 -10.994796 -8.82822 7.7e-05 -2.2e-05 6e-06 0.04675 0.199248 0.040344 0.693116 -3.498722 -10.35673 -0.614503 3.885617 -10.344189 -12.545265 -0.615781 12.777369 -38.353046 -46.119884 2.73746 176.825897 -54.305569 -179.130508 -16.639647 1.021789 12.072879 -5.882106 9.861284 0.70259 -10.936871 -0.360577 7.156208 1e-06 8.774825 -2e-06 -17.004251 17.423063 4.648291 -1.844032 2.498505 -2.507279 -10.1636 4.678944 4.621109 -20.976023 -4e-06 3e-06 -21.226286 2.451698 -3.594001 -0.0 -7e-06 -0.0 -1.362682 2.240799 -0.746323 -21.334911 0.58491 3.008325 -13.821213 -2e-06 2e-06 -23.887167 -0.249079 -0.839483 -60.686737 2.291552 -1.406548 -0.294026 1.679687 0.833256 -14.218207 0.093216 1.300581 -34.212048 -0.287564 0.967171 -20.033211 0.964537 1.212844 -0.0 0.0 0.0 -3.440387 0.788235 0.501655 -15.928185 -3.167311 2.999708 -6.338825 1e-06 1e-06 -18.123444 3.648182 -4.90567 -4e-06 -0.0 -1e-06 -6.276216 22.881464 13.970918 17.140629 21.874207 1.910992 -38.145771 83.434662 -38.407051 9.880267 -14.207085 24.539921 2.243543 -5.255037 -3.180158 14.282896 -0.826594 6.952506 -3e-06 -12.690607 0.0 16.463276 -16.986513 2.132136 1.665666 -1.955921 -2.878299 4.727799 -4.170588 4.993925 11.020526 4e-06 -1e-06 12.109053 -3.735715 -2.866782 1e-06 -0.0 -1e-06 1.291986 -1.928548 -1.498088 14.800131 0.56747 3.865606 14.242572 -1.341736 -6.660658 19.631969 0.143928 -0.648245 48.454109 -1.288028 -6.680436 0.35303 -1.511152 -0.031941 20.222797 3.684311 2.316631 18.787273 6e-06 1e-06 10.751629 -0.479868 1.397908 -0.0 0.0 1e-06 3.273806 0.305948 -0.580111 21.486818 11.830376 2.266134 8.16293 2e-06 1e-06 18.399088 -3.798984 -4.940574 3e-06 0.0 -1e-06 1.511714 7.968297 -28.909712 0.084289 0.011375 60.104961 -3.83065 -1.53974 -21.27636 1.719521 -1.674161 -3.256298 -0.0 -0.0 2e-06 -11.972281 -11.84967 9.854897 0.031495 0.687957 38.194813 10.553935 4.634221 -28.150677 -1.460139 0.989273 -3.623027 -0.0 -0.0 -1e-06 
0.0 0.0 0.0 0.0 -0.0 0.0 7.24785 88.82766 132.178146 2.125669 9.679792 -4.892024 -1.396067 2.085209 -2.061001 -0.944741 5.952492 -5.638813 -9.5676 5.617458 13.345096 4.897277 0.558882 -1.534947 -1.501398 -4.168565 -3.470029 8.912329 -12.027435 -8.261846 7.7e-05 -2.2e-05 6e-06 0.054676 0.212353 0.040501 0.674039 -3.497782 -10.403627 -0.580478 3.910116 -10.387478 -13.182308 -0.125926 12.250985 -40.773312 -47.750095 1.431327 175.265976 -45.572376 -178.590317 -16.002216 -0.997266 10.716194 -5.882114 9.861293 0.702592 -10.936889 -0.360574 7.156216 2e-06 8.774835 -0.0 -18.051378 17.435133 4.389502 -1.844035 2.498506 -2.507279 -10.163616 4.678949 4.621115 -20.976055 -5e-06 4e-06 -21.22632 2.451701 -3.594002 0.0 -6e-06 0.0 -1.362684 2.2408 -0.746325 -21.334949 0.58491 3.008329 -13.821237 -2e-06 3e-06 -23.887205 -0.249078 -0.839482 -61.78796 2.188197 -1.531824 -0.294024 1.67969 0.833258 -14.218231 0.093214 1.300582 -34.212105 -0.287565 0.967175 -20.033247 0.964539 1.212847 -0.0 0.0 -0.0 -3.440394 0.788234 0.501656 -15.928209 -3.167311 2.999711 -6.338837 -1e-06 1e-06 -18.123474 3.648184 -4.905674 -4e-06 0.0 -2e-06 -7.57392 23.322706 14.051028 16.061249 17.344492 0.934195 -88.526886 85.255791 -88.62394 8.122251 -10.918645 28.240061 2.24354 -5.255037 -3.180159 14.282898 -0.8266 6.95251 -2e-06 -12.69061 3e-06 17.488714 -16.711573 1.630371 1.665667 -1.955923 -2.878301 4.727805 -4.170592 4.993929 11.020531 2e-06 0.0 12.109058 -3.735717 -2.866783 -0.0 -0.0 -2e-06 1.291985 -1.928552 -1.498089 14.800138 0.567465 3.865613 14.242579 -1.341736 -6.660658 19.631975 0.14392 -0.648243 48.905067 -1.323446 -6.538418 0.353029 -1.511149 -0.03194 20.222803 3.684306 2.316635 18.787285 -0.0 3e-06 10.751634 -0.479873 1.397907 -0.0 1e-06 -1e-06 3.273808 0.305945 -0.58011 21.486824 11.830379 2.266137 8.162931 1e-06 3e-06 18.399094 -3.798993 -4.940575 3e-06 1e-06 -2e-06 0.785762 8.178335 -28.422503 -0.039066 0.195046 56.818699 -2.960769 -1.276897 -21.779022 1.751168 -1.616571 -2.117703 0.0 0.0 2e-06 -12.17129 -12.479833 11.861773 0.039683 0.717098 38.40033 11.085235 3.149885 -30.822496 -1.461212 0.839625 -3.648116 0.0 0.0 -1e-06 
0.0 0.0 0.0 0.0 -0.0 0.0 7.98891 87.224365 134.592819 2.372537 11.488366 -4.502449 -1.606976 2.141494 -1.982386 -0.922136 5.909218 -5.619273 -10.484159 5.480121 13.883576 6.549461 -0.077808 -2.791528 -1.62543 -4.759254 -3.500737 9.895059 -12.911857 -9.771384 7.7e-05 -2.2e-05 6e-06 0.033782 0.164249 0.000497 0.677083 -3.562918 -10.525907 -0.624703 3.879751 -10.508672 -14.338703 -0.639057 11.536125 -42.578297 -52.568291 1.904297 174.288666 -41.518154 -178.264877 -13.253 -2.050804 10.870151 -5.88211 9.861293 0.702587 -10.936881 -0.360576 7.156209 -0.0 8.774832 -1e-06 -18.170998 17.656893 4.619991 -1.844035 2.498507 -2.507279 -10.163608 4.678947 4.62111 -20.976044 -5e-06 -1e-06 -21.226307 2.451696 -3.594004 0.0 -7e-06 -0.0 -1.362684 2.2408 -0.746324 -21.33493 0.584909 3.008324 -13.821225 -4e-06 0.0 -23.887194 -0.249082 -0.839484 -61.538372 2.365303 -1.618411 -0.294025 1.679688 0.833256 -14.218223 0.093214 1.300581 -34.212082 -0.287567 0.967168 -20.033232 0.964535 1.212844 0.0 -0.0 0.0 -3.440392 0.788234 0.501655 -15.928201 -3.167313 2.999707 -6.338831 -2e-06 -0.0 -18.123463 3.648183 -4.905677 -4e-06 -2e-06 -2e-06 -6.172861 22.679644 14.699313 12.865561 12.452749 -3.620819 -138.213821 83.700134 -137.862732 4.184631 -6.593259 31.451498 2.243543 -5.25504 -3.180162 14.282904 -0.826595 6.952513 -5e-06 -12.690614 2e-06 18.584568 -16.873938 1.359202 1.665667 -1.955923 -2.878301 4.727805 -4.170591 4.99393 11.020538 3e-06 -2e-06 12.109062 -3.735717 -2.866786 -1e-06 -1e-06 -2e-06 1.291987 -1.928552 -1.498091 14.800144 0.567468 3.865614 14.242585 -1.341735 -6.660664 19.631987 0.143926 -0.648243 50.165886 -1.502918 -6.424313 0.35303 -1.511152 -0.031939 20.222815 3.684314 2.316636 18.787291 6e-06 1e-06 10.751637 -0.479869 1.39791 0.0 1e-06 1e-06 3.27381 0.30595 -0.580111 21.486834 11.830385 2.266137 8.162937 2e-06 1e-06 18.399099 -3.798988 -4.940576 4e-06 1e-06 0.0 0.370906 7.770718 -29.465132 0.087927 0.235793 61.568916 -2.52576 -2.23614 -24.990736 1.692851 -1.66665 -1.308331 0.0 -1e-06 2e-06 -13.894777 -14.058906 11.311225 0.103409 0.895264 44.240158 11.229331 4.391829 -31.15444 -1.464507 0.825076 -5.197286 -0.0 -0.0 -1e-06 
